<svg id="Layer_1" enable-background="new 0 0 497.499 497.499" height="512" viewBox="0 0 497.499 497.499" width="512" xmlns="http://www.w3.org/2000/svg"><g><g><path d="m323.75 492.903h-150c-8.284 0-15-6.716-15-15v-81.999c0-8.284 6.716-15 15-15h150c8.284 0 15 6.716 15 15v81.999c0 8.284-6.716 15-15 15z" fill="#4793ff"/></g><path d="m323.75 380.904h-75v111.999h75c8.284 0 15-6.716 15-15v-81.999c0-8.284-6.716-15-15-15z" fill="#525cdd"/><g><path d="m375.75 497.499h-254c-8.284 0-15-6.716-15-15s6.716-15 15-15h254c8.284 0 15 6.716 15 15s-6.716 15-15 15z" fill="#00429d"/></g><g><g><path clip-rule="evenodd" d="m45.026 15h407.446c8.402 0 15.277 6.875 15.277 15.277v355.446c0 8.402-6.875 15.277-15.277 15.277h-407.446c-8.402 0-15.277-6.875-15.277-15.277v-355.446c0-8.402 6.875-15.277 15.277-15.277z" fill="#fff4f4" fill-rule="evenodd"/></g></g><path clip-rule="evenodd" d="m452.473 15h-203.723v386h203.723c8.402 0 15.277-6.875 15.277-15.277v-355.446c0-8.402-6.875-15.277-15.277-15.277z" fill="#f6efea" fill-rule="evenodd"/><g><path d="m372.75 193c-8.284 0-15-6.716-15-15v-45.5c0-8.284 6.716-15 15-15s15 6.716 15 15v45.5c0 8.284-6.716 15-15 15z" fill="#001737"/></g><g><g><path d="m452.472 416h-407.445c-16.695 0-30.277-13.582-30.277-30.276v-355.447c0-16.695 13.582-30.277 30.277-30.277h407.445c16.695 0 30.277 13.582 30.277 30.277v355.446c.001 16.695-13.582 30.277-30.277 30.277zm-407.445-386c-.119 0-.277.158-.277.277v355.446c0 .119.158.276.277.276h407.445c.119 0 .277-.157.277-.276v-355.446c0-.119-.158-.277-.277-.277z" fill="#00429d"/></g></g><g><path d="m248.75 205c-2.154 0-4.309-.464-6.311-1.392l-124.001-57.5c-5.299-2.457-8.689-7.768-8.689-13.608s3.391-11.151 8.689-13.608l124.001-57.5c4.004-1.855 8.619-1.855 12.621 0l124 57.5c5.299 2.458 8.689 7.768 8.689 13.608s-3.391 11.15-8.689 13.608l-124 57.5c-2.001.928-4.156 1.392-6.31 1.392z" fill="#00429d"/></g><path d="m379.06 118.892-124-57.5c-2.001-.928-4.156-1.392-6.31-1.392v145c2.154 0 4.31-.464 6.311-1.392l124-57.5c5.299-2.458 8.689-7.768 8.689-13.608s-3.391-11.15-8.69-13.608z" fill="#00347b"/><g><path d="m306.75 239h-116c-8.284 0-15-6.716-15-15v-70.859c0-6.305 3.942-11.937 9.866-14.094 41.59-15.152 84.052-15.158 126.202-.023 5.958 2.139 9.932 7.787 9.932 14.117v70.859c0 8.284-6.716 15-15 15z" fill="#00347b"/></g><g><path d="m218.774 299.001h-129.024c-8.284 0-15-6.716-15-15s6.716-15 15-15h129.024c8.284 0 15 6.716 15 15s-6.716 15-15 15z" fill="#7dd5f4"/></g><g><path d="m154.261 359.001h-64.511c-8.284 0-15-6.716-15-15s6.716-15 15-15h64.512c8.284 0 15 6.716 15 15s-6.717 15-15.001 15z" fill="#7dd5f4"/></g><g><path d="m407.709 299.001h-128.959c-8.284 0-15-6.716-15-15s6.716-15 15-15h128.96c8.284 0 15 6.716 15 15s-6.716 15-15.001 15z" fill="#4793ff"/></g><g><path d="m343.261 359.001h-64.511c-8.284 0-15-6.716-15-15s6.716-15 15-15h64.512c8.284 0 15 6.716 15 15s-6.717 15-15.001 15z" fill="#4793ff"/></g><path d="m311.818 139.023c-20.994-7.538-42.066-11.318-63.068-11.343v111.32h58c8.284 0 15-6.716 15-15v-70.859c0-6.33-3.974-11.979-9.932-14.118z" fill="#001737"/><g fill="#00347b"><path d="m452.472 0h-203.722v30h203.723c.119 0 .277.158.277.277v355.446c0 .119-.158.276-.277.276h-203.723v30h203.723c16.695 0 30.277-13.582 30.277-30.276v-355.446c0-16.695-13.583-30.277-30.278-30.277z"/><path d="m375.75 467.499h-127v30h127c8.284 0 15-6.716 15-15s-6.716-15-15-15z"/></g></g></svg>